<?xml version="1.0" encoding="UTF-8"?><svg id="Layer_1" xmlns="http://www.w3.org/2000/svg" viewBox="0 0 100 100"><defs><style>.cls-1{fill:#e8af22;}.cls-2{fill:#fff;}</style></defs><path class="cls-1" d="M97.5,47.5C97.5,21.27,76.23,0,50,0S2.5,21.27,2.5,47.5c0,24.44,18.46,44.56,42.2,47.2l5.3,5.3,5.3-5.3c23.74-2.64,42.2-22.76,42.2-47.2Z"/><path class="cls-2" d="M35.21,30.47c1.8,0,3.5-.7,4.9-1.9,3,2.5,6.9,2.5,9.89,0,3,2.5,6.9,2.5,9.89,0,1.5,1.2,3.2,1.9,4.9,1.9,.9,0,1.7-.8,1.7-1.7s-.8-1.7-1.7-1.7c-1.6,0-2.9-1.1-3.6-2-.3-.4-.8-.6-1.3-.6s-1,.2-1.3,.6c-.8,.9-2,2-3.6,2s-2.9-1.1-3.6-2c-.6-.8-1.9-.8-2.6,0-.8,.9-2,2-3.6,2s-2.9-1.1-3.6-2c-.6-.8-1.9-.8-2.6,0-.8,.9-2,2-3.6,2-.9,0-1.7,.8-1.7,1.7,.02,.9,.62,1.7,1.52,1.7h0Z"/><path class="cls-2" d="M35.21,39.47c1.8,0,3.5-.7,4.9-1.9,3,2.5,6.9,2.5,9.89,0,3,2.5,6.9,2.5,9.89,0,1.5,1.2,3.2,1.9,4.9,1.9,.9,0,1.7-.8,1.7-1.7s-.8-1.7-1.7-1.7c-1.6,0-2.9-1.1-3.6-2-.3-.4-.8-.6-1.3-.6s-1,.2-1.3,.6c-.8,.9-2,2-3.6,2s-2.9-1.1-3.6-2c-.6-.8-1.9-.8-2.6,0-.8,.9-2,2-3.6,2s-2.9-1.1-3.6-2c-.6-.8-1.9-.8-2.6,0-.8,.9-2,2-3.6,2-.9,0-1.7,.8-1.7,1.7,.02,.9,.62,1.7,1.52,1.7h0Z"/><path class="cls-2" d="M35.21,48.46c1.8,0,3.5-.7,4.9-1.9,3,2.5,6.9,2.5,9.89,0,3,2.5,6.9,2.5,9.89,0,1.5,1.2,3.2,1.9,4.9,1.9,.9,0,1.7-.8,1.7-1.7s-.8-1.7-1.7-1.7c-1.6,0-2.9-1.1-3.6-2-.3-.4-.8-.6-1.3-.6s-1,.2-1.3,.6c-.8,.9-2,2-3.6,2s-2.9-1.1-3.6-2c-.6-.8-1.9-.8-2.6,0-.8,.9-2,2-3.6,2s-2.9-1.1-3.6-2c-.6-.8-1.9-.8-2.6,0-.8,.9-2,2-3.6,2-.9,0-1.7,.8-1.7,1.7,.02,.9,.62,1.7,1.52,1.7h0Z"/><path class="cls-2" d="M35.21,57.46c1.8,0,3.5-.7,4.9-1.9,3,2.5,6.9,2.5,9.89,0,3,2.5,6.9,2.5,9.89,0,1.5,1.2,3.2,1.9,4.9,1.9,.9,0,1.7-.8,1.7-1.7s-.8-1.7-1.7-1.7c-1.6,0-2.9-1.1-3.6-2-.3-.4-.8-.6-1.3-.6s-1,.2-1.3,.6c-.8,.9-2,2-3.6,2s-2.9-1.1-3.6-2c-.6-.8-1.9-.8-2.6,0-.8,.9-2,2-3.6,2s-2.9-1.1-3.6-2c-.6-.8-1.9-.8-2.6,0-.8,.9-2,2-3.6,2-.9,0-1.7,.8-1.7,1.7,.02,.9,.62,1.7,1.52,1.7h0Z"/><path class="cls-2" d="M87,61.16h-2.43l-8-36.09c-.1-.4-.5-.7-.9-.7h-4.47c-.5,0-.9,.4-.9,.9V61.15H29.71s0-35.89,0-35.89c0-.5-.4-.9-.9-.9h-4.47c-.4,0-.8,.3-.9,.7l-8,36.09h-2.43c-.5,0-.9,.4-.9,.9v2.4c0,.5,.4,.9,.9,.9H86.99c.5,0,.9-.4,.9-.9v-2.4c0-.5-.39-.9-.89-.9h0Z"/><path class="cls-2" d="M50,2c25.09,0,45.5,20.41,45.5,45.5,0,23.21-17.38,42.65-40.42,45.21l-.7,.08-.5,.5-3.89,3.89-3.89-3.89-.5-.5-.7-.08c-23.04-2.56-40.42-22-40.42-45.21C4.5,22.41,24.91,2,50,2m0-2C23.77,0,2.5,21.27,2.5,47.5c0,24.44,18.46,44.56,42.2,47.2l5.3,5.3,5.3-5.3c23.74-2.64,42.2-22.76,42.2-47.2C97.5,21.27,76.23,0,50,0h0Z"/></svg>