<?xml version="1.0" encoding="UTF-8"?><svg id="Layer_1" xmlns="http://www.w3.org/2000/svg" viewBox="0 0 100 100"><defs><style>.cls-1{fill:#e8af22;}.cls-2{fill:#fff;}</style></defs><path class="cls-1" d="M97.5,47.5C97.5,21.27,76.23,0,50,0S2.5,21.27,2.5,47.5c0,24.44,18.46,44.56,42.2,47.2l5.3,5.3,5.3-5.3c23.74-2.64,42.2-22.76,42.2-47.2Z"/><path class="cls-2" d="M54.33,43.18c-.13,.37-.09,.77,.13,1.1,.22,.31,.59,.51,.97,.51h12.71l-35.4,41.91,12.93-34.9c.13-.37,.09-.77-.13-1.1-.22-.31-.59-.51-.97-.51h-12.71L67.29,8.3l-12.95,34.88Z"/><path class="cls-2" d="M50,2c25.09,0,45.5,20.41,45.5,45.5,0,23.21-17.38,42.65-40.42,45.21l-.7,.08-.5,.5-3.89,3.89-3.89-3.89-.5-.5-.7-.08c-23.04-2.56-40.42-22-40.42-45.21C4.5,22.41,24.91,2,50,2m0-2C23.77,0,2.5,21.27,2.5,47.5c0,24.44,18.46,44.56,42.2,47.2l5.3,5.3,5.3-5.3c23.74-2.64,42.2-22.76,42.2-47.2C97.5,21.27,76.23,0,50,0h0Z"/></svg>