<?xml version="1.0" encoding="UTF-8"?><svg id="Layer_1" xmlns="http://www.w3.org/2000/svg" viewBox="0 0 100 100"><defs><style>.cls-1{fill:#00b6f7;}.cls-2{fill:#fff;}</style></defs><path class="cls-1" d="M97.5,47.5C97.5,21.27,76.23,0,50,0S2.5,21.27,2.5,47.5c0,24.44,18.46,44.56,42.2,47.2l5.3,5.3,5.3-5.3c23.74-2.64,42.2-22.76,42.2-47.2Z"/><path class="cls-2" d="M33.79,19.8h10.42v3.17h3.47v2.56h-5.79c-1.29,0-2.32,1.03-2.32,2.32s1.03,2.32,2.32,2.32h16.21c1.29,0,2.32-1.03,2.32-2.32s-1.03-2.32-2.32-2.32h-5.79v-2.56h3.47v-3.17h10.42c1.29,0,2.32-1.03,2.32-2.32s-1.03-2.32-2.32-2.32H33.79c-1.29,0-2.32,1.03-2.32,2.32s1.03,2.32,2.32,2.32Z"/><path class="cls-2" d="M83.69,47.4h-5.48v-1.03c0-1.29-1.03-2.32-2.32-2.32s-2.32,1.03-2.32,2.32v1.06h-4.41c-1.03-.03-2.01-.51-2.65-1.31h0c-2.08-2.65-4.81-4.79-7.95-6.18-1.67-.75-2.78-2.39-2.78-4.25v-4.25h-11.58v4.35c0,1.83-1.08,3.47-2.75,4.22-3.04,1.39-5.69,3.5-7.72,6.1-.64,.82-1.6,1.29-2.63,1.29h-2.63v-1.03c0-1.29-1.03-2.32-2.32-2.32s-2.32,1.03-2.32,2.32v1.03h-7.54v23.16h7.54v1.29c0,1.29,1.03,2.32,2.32,2.32s2.32-1.03,2.32-2.32v-1.29h2.66c1.03,0,2.01,.46,2.63,1.29,3.73,4.74,9.42,7.82,15.85,7.98,6.85,.15,12.97-2.99,16.88-7.95,.64-.82,1.6-1.29,2.65-1.29h4.43v1.26c0,1.29,1.03,2.32,2.32,2.32s2.32-1.03,2.32-2.32v-1.29h5.48v-23.16Z"/><path class="cls-2" d="M50,2c25.09,0,45.5,20.41,45.5,45.5,0,23.21-17.38,42.65-40.42,45.21l-.7,.08-.5,.5-3.89,3.89-3.89-3.89-.5-.5-.7-.08c-23.04-2.56-40.42-22-40.42-45.21C4.5,22.41,24.91,2,50,2m0-2C23.77,0,2.5,21.27,2.5,47.5c0,24.44,18.46,44.56,42.2,47.2l5.3,5.3,5.3-5.3c23.74-2.64,42.2-22.76,42.2-47.2C97.5,21.27,76.23,0,50,0h0Z"/></svg>