{
	"asset":{
		"version":"2.0",
		"generator":"Created using the official Cinema 4D glTF Exporter 1.000x284978"
	},
	"scenes":[{
		"nodes":[0]
	}],
	"nodes":[{
		"name":"A-frame",
		"children":[1,
		2]
	},
	{
		"name":"Cube.1",
		"mesh":0,
		"translation":[-11.924556732177735,
		109.85529327392578,
		-39.793800354003909],
		"rotation":[0.0,
		0.0,
		0.0,
		-1.0],
		"scale":[1.0,
		1.0,
		1.0]
	},
	{
		"name":"Extrude",
		"children":[3]
	},
	{
		"name":"Extrude",
		"mesh":1
	}],
	"meshes":[{
		"name":"Cube.1",
		"primitives":[{
			"attributes":{
				"POSITION":1
			},
			"indices":0
		}]
	},
	{
		"name":"Extrude",
		"primitives":[{
			"attributes":{
				"POSITION":3
			},
			"indices":2,
			"material":0
		}]
	}],
	"accessors":[{
		"bufferView":0,
		"min":[0],
		"type":"SCALAR",
		"componentType":5123,
		"count":36,
		"byteOffset":0,
		"max":[7]
	},
	{
		"bufferView":1,
		"min":[-5.0,
		-100.0,
		-5.0],
		"type":"VEC3",
		"componentType":5126,
		"count":8,
		"byteOffset":0,
		"max":[5.0,
		100.0,
		5.0]
	},
	{
		"bufferView":2,
		"min":[0],
		"type":"SCALAR",
		"componentType":5123,
		"count":24,
		"byteOffset":0,
		"max":[5]
	},
	{
		"bufferView":3,
		"min":[-150.0,
		9.839273452758789,
		-78.33583068847656],
		"type":"VEC3",
		"componentType":5126,
		"count":6,
		"byteOffset":0,
		"max":[0.0,
		166.09701538085938,
		78.33583068847656]
	}],
	"bufferViews":[{
		"buffer":0,
		"byteOffset":0,
		"byteLength":72,
		"target":34963
	},
	{
		"buffer":0,
		"byteOffset":72,
		"byteLength":96,
		"target":34962
	},
	{
		"buffer":1,
		"byteOffset":0,
		"byteLength":48,
		"target":34963
	},
	{
		"buffer":1,
		"byteOffset":48,
		"byteLength":72,
		"target":34962
	}],
	"buffers":[{
		"uri":"data:application/octet-stream;base64,",
		"byteLength":168
	},
	{
		"uri":"data:application/octet-stream;base64,",
		"byteLength":120
	}],
	"materials":[{
		"pbrMetallicRoughness":{
			"baseColorFactor":[0.93,
			0.93,
			0.93,
			1.0],
			"metallicFactor":0.3,
			"roughnessFactor":0.4
		},
		"emissiveFactor":[0.0,
		0.0,
		0.0],
		"alphaMode":"OPAQUE",
		"doubleSided":false,
		"name":"Matte White"
	}]
}